<mxfile host="65bd71144e" modified="2020-10-21T09:32:57.466Z" agent="5.0 (Windows NT 10.0; Win64; x64) AppleWebKit/537.36 (KHTML, like Gecko) Code/1.50.0 Chrome/83.0.4103.122 Electron/9.2.1 Safari/537.36" etag="Bnjzwf9_60-HAPtxFxz3" version="13.6.5">
    <diagram name="Page-1" id="e7e014a7-5840-1c2e-5031-d8a46d1fe8dd">
        <mxGraphModel dx="1216" dy="705" grid="1" gridSize="10" guides="1" tooltips="1" connect="1" arrows="1" fold="1" page="1" pageScale="1" pageWidth="1169" pageHeight="826" background="#ffffff" math="0" shadow="0">
            <root>
                <mxCell id="0"/>
                <mxCell id="1" parent="0"/>
                <mxCell id="mJM4uPILTsuEuqCofqly-54" style="edgeStyle=orthogonalEdgeStyle;rounded=0;orthogonalLoop=1;jettySize=auto;html=1;exitX=0;exitY=0.5;exitDx=0;exitDy=0;endArrow=none;endFill=0;fontColor=#000000;" parent="1" source="mJM4uPILTsuEuqCofqly-46" target="mJM4uPILTsuEuqCofqly-47" edge="1">
                    <mxGeometry relative="1" as="geometry"/>
                </mxCell>
                <mxCell id="mJM4uPILTsuEuqCofqly-46" value="Richiesta di dati COVID-19" style="ellipse;whiteSpace=wrap;html=1;fillColor=#f8cecc;strokeColor=#b85450;fontColor=#000000;" parent="1" vertex="1">
                    <mxGeometry x="170" y="320" width="170" height="60" as="geometry"/>
                </mxCell>
                <mxCell id="mJM4uPILTsuEuqCofqly-47" value="" style="shape=umlActor;verticalLabelPosition=bottom;labelBackgroundColor=#ffffff;verticalAlign=top;html=1;outlineConnect=0;fontColor=#000000;" parent="1" vertex="1">
                    <mxGeometry x="60" y="320" width="30" height="60" as="geometry"/>
                </mxCell>
                <mxCell id="mJM4uPILTsuEuqCofqly-55" style="edgeStyle=orthogonalEdgeStyle;rounded=0;orthogonalLoop=1;jettySize=auto;html=1;exitX=0;exitY=0.5;exitDx=0;exitDy=0;entryX=0.5;entryY=0;entryDx=0;entryDy=0;entryPerimeter=0;endArrow=none;endFill=0;fontColor=#000000;" parent="1" source="mJM4uPILTsuEuqCofqly-48" target="mJM4uPILTsuEuqCofqly-47" edge="1">
                    <mxGeometry relative="1" as="geometry"/>
                </mxCell>
                <mxCell id="mJM4uPILTsuEuqCofqly-48" value="Richiesta dati globali" style="ellipse;whiteSpace=wrap;html=1;fillColor=#dae8fc;strokeColor=#6c8ebf;fontColor=#000000;" parent="1" vertex="1">
                    <mxGeometry x="170" y="150" width="170" height="60" as="geometry"/>
                </mxCell>
                <mxCell id="mJM4uPILTsuEuqCofqly-56" style="edgeStyle=orthogonalEdgeStyle;rounded=0;orthogonalLoop=1;jettySize=auto;html=1;exitX=0;exitY=0.5;exitDx=0;exitDy=0;endArrow=none;endFill=0;fontColor=#000000;" parent="1" source="mJM4uPILTsuEuqCofqly-49" target="mJM4uPILTsuEuqCofqly-47" edge="1">
                    <mxGeometry relative="1" as="geometry"/>
                </mxCell>
                <mxCell id="mJM4uPILTsuEuqCofqly-65" style="edgeStyle=orthogonalEdgeStyle;rounded=0;orthogonalLoop=1;jettySize=auto;html=1;exitX=0.5;exitY=0;exitDx=0;exitDy=0;entryX=0.5;entryY=1;entryDx=0;entryDy=0;dashed=1;endArrow=classic;endFill=1;fontColor=#000000;" parent="1" source="mJM4uPILTsuEuqCofqly-49" target="mJM4uPILTsuEuqCofqly-46" edge="1">
                    <mxGeometry relative="1" as="geometry"/>
                </mxCell>
                <mxCell id="mJM4uPILTsuEuqCofqly-49" value="Richiesta di statistiche &lt;br&gt;COVID-19" style="ellipse;whiteSpace=wrap;html=1;fillColor=#ffe6cc;strokeColor=#d79b00;fontColor=#000000;" parent="1" vertex="1">
                    <mxGeometry x="170" y="490" width="170" height="60" as="geometry"/>
                </mxCell>
                <mxCell id="mJM4uPILTsuEuqCofqly-58" style="edgeStyle=orthogonalEdgeStyle;rounded=0;orthogonalLoop=1;jettySize=auto;html=1;exitX=0;exitY=0.5;exitDx=0;exitDy=0;endArrow=classic;endFill=1;dashed=1;fontColor=#000000;" parent="1" source="mJM4uPILTsuEuqCofqly-50" target="mJM4uPILTsuEuqCofqly-46" edge="1">
                    <mxGeometry relative="1" as="geometry"/>
                </mxCell>
                <mxCell id="mJM4uPILTsuEuqCofqly-50" value="Selezione dei paesi" style="ellipse;whiteSpace=wrap;html=1;fillColor=#f8cecc;strokeColor=#b85450;fontColor=#000000;" parent="1" vertex="1">
                    <mxGeometry x="420" y="320" width="170" height="60" as="geometry"/>
                </mxCell>
                <mxCell id="mJM4uPILTsuEuqCofqly-57" style="edgeStyle=orthogonalEdgeStyle;rounded=0;orthogonalLoop=1;jettySize=auto;html=1;exitX=0;exitY=0.5;exitDx=0;exitDy=0;entryX=1;entryY=0;entryDx=0;entryDy=0;endArrow=classic;endFill=1;dashed=1;fontColor=#000000;" parent="1" source="mJM4uPILTsuEuqCofqly-51" target="mJM4uPILTsuEuqCofqly-46" edge="1">
                    <mxGeometry relative="1" as="geometry"/>
                </mxCell>
                <mxCell id="mJM4uPILTsuEuqCofqly-51" value="Selezione del dato" style="ellipse;whiteSpace=wrap;html=1;fillColor=#f8cecc;strokeColor=#b85450;fontColor=#000000;" parent="1" vertex="1">
                    <mxGeometry x="420" y="240" width="170" height="60" as="geometry"/>
                </mxCell>
                <mxCell id="mJM4uPILTsuEuqCofqly-59" style="edgeStyle=orthogonalEdgeStyle;rounded=0;orthogonalLoop=1;jettySize=auto;html=1;exitX=0;exitY=0.5;exitDx=0;exitDy=0;entryX=1;entryY=1;entryDx=0;entryDy=0;endArrow=classic;endFill=1;dashed=1;fontColor=#000000;" parent="1" source="mJM4uPILTsuEuqCofqly-52" target="mJM4uPILTsuEuqCofqly-46" edge="1">
                    <mxGeometry relative="1" as="geometry"/>
                </mxCell>
                <mxCell id="mJM4uPILTsuEuqCofqly-52" value="Selezione dei filtri" style="ellipse;whiteSpace=wrap;html=1;fillColor=#f8cecc;strokeColor=#b85450;fontColor=#000000;" parent="1" vertex="1">
                    <mxGeometry x="420" y="400" width="170" height="60" as="geometry"/>
                </mxCell>
                <mxCell id="mJM4uPILTsuEuqCofqly-60" style="edgeStyle=orthogonalEdgeStyle;rounded=0;orthogonalLoop=1;jettySize=auto;html=1;exitX=0;exitY=0.5;exitDx=0;exitDy=0;entryX=1;entryY=0.5;entryDx=0;entryDy=0;endArrow=classic;endFill=1;dashed=1;fontColor=#000000;" parent="1" source="mJM4uPILTsuEuqCofqly-53" target="mJM4uPILTsuEuqCofqly-49" edge="1">
                    <mxGeometry relative="1" as="geometry"/>
                </mxCell>
                <mxCell id="mJM4uPILTsuEuqCofqly-53" value="Selezione statistiche" style="ellipse;whiteSpace=wrap;html=1;fillColor=#ffe6cc;strokeColor=#d79b00;fontColor=#000000;" parent="1" vertex="1">
                    <mxGeometry x="420" y="490" width="170" height="60" as="geometry"/>
                </mxCell>
                <mxCell id="mJM4uPILTsuEuqCofqly-61" value="&amp;lt;&amp;lt;include&amp;gt;&amp;gt;" style="text;html=1;align=center;verticalAlign=middle;resizable=0;points=[];autosize=1;fontColor=#000000;" parent="1" vertex="1">
                    <mxGeometry x="340" y="490" width="80" height="20" as="geometry"/>
                </mxCell>
                <mxCell id="mJM4uPILTsuEuqCofqly-62" value="&amp;lt;&amp;lt;include&amp;gt;&amp;gt;" style="text;html=1;align=center;verticalAlign=middle;resizable=0;points=[];autosize=1;fontColor=#000000;" parent="1" vertex="1">
                    <mxGeometry x="330" y="403" width="80" height="20" as="geometry"/>
                </mxCell>
                <mxCell id="mJM4uPILTsuEuqCofqly-63" value="&amp;lt;&amp;lt;include&amp;gt;&amp;gt;" style="text;html=1;align=center;verticalAlign=middle;resizable=0;points=[];autosize=1;fontColor=#000000;" parent="1" vertex="1">
                    <mxGeometry x="340" y="320" width="80" height="20" as="geometry"/>
                </mxCell>
                <mxCell id="mJM4uPILTsuEuqCofqly-64" value="&amp;lt;&amp;lt;include&amp;gt;&amp;gt;" style="text;html=1;align=center;verticalAlign=middle;resizable=0;points=[];autosize=1;fontColor=#000000;" parent="1" vertex="1">
                    <mxGeometry x="330" y="240" width="80" height="20" as="geometry"/>
                </mxCell>
                <mxCell id="mJM4uPILTsuEuqCofqly-66" value="&amp;lt;&amp;lt;extend&amp;gt;&amp;gt;" style="text;html=1;align=center;verticalAlign=middle;resizable=0;points=[];autosize=1;fontColor=#000000;" parent="1" vertex="1">
                    <mxGeometry x="170" y="420" width="80" height="20" as="geometry"/>
                </mxCell>
            </root>
        </mxGraphModel>
    </diagram>
</mxfile>